<svg 
 xmlns="http://www.w3.org/2000/svg"
 xmlns:xlink="http://www.w3.org/1999/xlink"
 width="20px" height="20px">
<path fill-rule="evenodd"  fill="rgb(255, 255, 255)"
 d="M19.219,17.070 L17.070,17.070 L17.070,19.219 C17.070,19.650 16.721,20.000 16.289,20.000 C15.858,20.000 15.508,19.650 15.508,19.219 L15.508,17.070 L13.360,17.070 C12.928,17.070 12.578,16.720 12.578,16.289 C12.578,15.857 12.928,15.508 13.360,15.508 L15.508,15.508 L15.508,13.359 C15.508,12.928 15.858,12.578 16.289,12.578 C16.721,12.578 17.070,12.928 17.070,13.359 L17.070,15.508 L19.219,15.508 C19.650,15.508 20.000,15.857 20.000,16.289 C20.000,16.720 19.650,17.070 19.219,17.070 ZM13.183,9.564 C13.582,9.695 13.974,9.853 14.358,10.035 C14.748,10.221 14.914,10.687 14.729,11.076 C14.543,11.466 14.077,11.632 13.688,11.447 C12.594,10.927 11.425,10.649 10.209,10.621 C10.140,10.624 10.070,10.625 10.000,10.625 C9.931,10.625 9.862,10.624 9.793,10.621 C5.827,10.717 2.392,13.562 1.581,17.456 C1.531,17.699 1.591,17.949 1.747,18.140 C1.837,18.251 2.038,18.437 2.372,18.437 L11.993,18.437 C12.424,18.437 12.774,18.787 12.774,19.219 C12.774,19.650 12.424,20.000 11.993,20.000 L2.372,20.000 C1.656,20.000 0.986,19.681 0.534,19.126 C0.081,18.568 -0.095,17.843 0.051,17.137 C0.520,14.885 1.762,12.836 3.549,11.366 C4.523,10.565 5.636,9.957 6.822,9.567 C5.527,8.597 4.688,7.051 4.688,5.312 C4.688,2.383 7.071,-0.000 10.000,-0.000 C12.930,-0.000 15.313,2.383 15.313,5.312 C15.313,7.049 14.475,8.594 13.183,9.564 ZM10.000,1.562 C7.933,1.562 6.251,3.245 6.251,5.312 C6.251,7.317 7.831,8.959 9.811,9.058 C9.874,9.057 9.937,9.056 10.000,9.056 C10.064,9.056 10.128,9.057 10.191,9.058 C12.170,8.958 13.750,7.316 13.750,5.312 C13.750,3.245 12.068,1.562 10.000,1.562 Z"/>
</svg>